<svg preserveAspectRatio="none" width="100%" height="100%" overflow="visible" style="display: block;" viewBox="0 0 48 36" fill="none" xmlns="http://www.w3.org/2000/svg">
<g id="div">
<path d="M40 0C44.4183 5.15405e-07 48 3.58172 48 8V28C48 32.4183 44.4183 36 40 36H8C3.58172 36 3.22139e-08 32.4183 0 28V8C0 3.58172 3.58172 1.28851e-07 8 0H40Z" stroke="var(--stroke-0, #E5E7EB)"/>
<path id="Vector" d="M24 10C26.1217 10 28.1566 10.8429 29.6569 12.3431C31.1571 13.8434 32 15.8783 32 18C32 20.1217 31.1571 22.1566 29.6569 23.6569C28.1566 25.1571 26.1217 26 24 26C21.8783 26 19.8434 25.1571 18.3431 23.6569C16.8429 22.1566 16 20.1217 16 18C16 15.8783 16.8429 13.8434 18.3431 12.3431C19.8434 10.8429 21.8783 10 24 10ZM23.25 13.75V18C23.25 18.25 23.375 18.4844 23.5844 18.625L26.5844 20.625C26.9281 20.8563 27.3937 20.7625 27.625 20.4156C27.8563 20.0687 27.7625 19.6063 27.4156 19.375L24.75 17.6V13.75C24.75 13.3344 24.4156 13 24 13C23.5844 13 23.25 13.3344 23.25 13.75Z" fill="var(--fill-0, #F99D1B)"/>
</g>
</svg>
