<svg preserveAspectRatio="none" width="100%" height="100%" overflow="visible" style="display: block;" viewBox="0 0 20 20" fill="none" xmlns="http://www.w3.org/2000/svg">
<g id="tdesign:internet" clip-path="url(#clip0_4163_492)">
<path id="Vector" d="M2.54583 9.16667C2.70855 7.71728 3.28988 6.34666 4.2188 5.22224C5.14772 4.09783 6.38402 3.2683 7.77667 2.835C6.64323 4.76321 5.98536 6.93366 5.8575 9.16667H2.54583ZM9.16 0.871667C4.49167 1.295 0.833333 5.22083 0.833333 10C0.833333 14.7792 4.49167 18.705 9.16 19.1292L9.16667 19.1375L9.52083 19.1542C9.68044 19.1619 9.8402 19.166 10 19.1667C10.1598 19.1667 10.3196 19.1625 10.4792 19.1542L10.8333 19.1375L10.84 19.1292C15.5083 18.7033 19.1667 14.7792 19.1667 10C19.1667 5.22083 15.5083 1.295 10.84 0.871667L10.8333 0.863333L10.4783 0.845833C10.1597 0.829182 9.84034 0.829182 9.52167 0.845833L9.16667 0.8625L9.16 0.871667ZM10.0017 2.5C11.4575 4.43387 12.3163 6.75111 12.4725 9.16667H7.5275C7.68392 6.75102 8.54304 4.43378 9.99917 2.5H10M5.85667 10.8333C5.99 13.1333 6.67333 15.2875 7.77583 17.165C6.38334 16.7316 5.14722 15.902 4.21846 14.7776C3.28969 13.6532 2.70849 12.2826 2.54583 10.8333H5.85667ZM9.99833 17.5C8.5422 15.5662 7.68309 13.249 7.52667 10.8333H12.4717C12.3152 13.249 11.4561 15.5662 10 17.5H9.99833ZM12.2233 17.165C13.3565 15.2367 14.0141 13.0663 14.1417 10.8333H17.4533C17.2907 12.2826 16.7095 13.6532 15.7807 14.7776C14.8519 15.902 13.6158 16.7316 12.2233 17.165ZM14.1417 9.16667C14.0083 6.86667 13.325 4.7125 12.2225 2.835C13.6153 3.26816 14.8518 4.09763 15.7809 5.22206C16.7099 6.34648 17.2914 7.71718 17.4542 9.16667H14.1417Z" fill="var(--fill-0, #F99D1B)"/>
</g>
<defs>
<clipPath id="clip0_4163_492">
<rect width="20" height="20" fill="white"/>
</clipPath>
</defs>
</svg>
