<svg preserveAspectRatio="none" width="100%" height="100%" overflow="visible" style="display: block;" viewBox="0 0 14 12" fill="none" xmlns="http://www.w3.org/2000/svg">
<g id="Frame">
<g clip-path="url(#clip0_4163_671)">
<path id="Vector" d="M7.37496 0.4188C7.25163 0.162816 6.99099 -8.31117e-05 6.70475 -8.31117e-05C6.41852 -8.31117e-05 6.1602 0.162816 6.03454 0.4188L4.5382 3.49759L1.19644 3.99094C0.917185 4.03283 0.684472 4.22831 0.598368 4.49593C0.512265 4.76355 0.582078 5.05909 0.782211 5.2569L3.20708 7.65617L2.63461 11.0468C2.58806 11.326 2.70442 11.61 2.9348 11.7752C3.16519 11.9404 3.47004 11.9614 3.72137 11.8287L6.70708 10.2346L9.69278 11.8287C9.94411 11.9614 10.249 11.9427 10.4794 11.7752C10.7097 11.6076 10.8261 11.326 10.7796 11.0468L10.2048 7.65617L12.6296 5.2569C12.8298 5.05909 12.9019 4.76355 12.8135 4.49593C12.725 4.22831 12.4946 4.03283 12.2154 3.99094L8.87131 3.49759L7.37496 0.4188Z" fill="var(--fill-0, #F97316)"/>
</g>
</g>
<defs>
<clipPath id="clip0_4163_671">
<path d="M0 0H13.4043V11.9149H0V0Z" fill="white"/>
</clipPath>
</defs>
</svg>
