<svg preserveAspectRatio="none" width="100%" height="100%" overflow="visible" style="display: block;" viewBox="0 0 48 36" fill="none" xmlns="http://www.w3.org/2000/svg">
<g id="div">
<path d="M40 0C44.4183 5.15405e-07 48 3.58172 48 8V28C48 32.4183 44.4183 36 40 36H8C3.58172 36 3.22139e-08 32.4183 0 28V8C0 3.58172 3.58172 1.28851e-07 8 0H40Z" stroke="var(--stroke-0, #E5E7EB)"/>
<path id="Vector" d="M18.5 10C19.163 10 19.7989 10.2634 20.2678 10.7322C20.7366 11.2011 21 11.837 21 12.5C21 13.163 20.7366 13.7989 20.2678 14.2678C19.7989 14.7366 19.163 15 18.5 15C17.837 15 17.2011 14.7366 16.7322 14.2678C16.2634 13.7989 16 13.163 16 12.5C16 11.837 16.2634 11.2011 16.7322 10.7322C17.2011 10.2634 17.837 10 18.5 10ZM30 10C30.663 10 31.2989 10.2634 31.7678 10.7322C32.2366 11.2011 32.5 11.837 32.5 12.5C32.5 13.163 32.2366 13.7989 31.7678 14.2678C31.2989 14.7366 30.663 15 30 15C29.337 15 28.7011 14.7366 28.2322 14.2678C27.7634 13.7989 27.5 13.163 27.5 12.5C27.5 11.837 27.7634 11.2011 28.2322 10.7322C28.7011 10.2634 29.337 10 30 10ZM14 19.3344C14 17.4938 15.4937 16 17.3344 16H18.6687C19.1656 16 19.6375 16.1094 20.0625 16.3031C20.0219 16.5281 20.0031 16.7625 20.0031 17C20.0031 18.1938 20.5281 19.2656 21.3562 20C21.35 20 21.3437 20 21.3344 20H14.6656C14.3 20 14 19.7 14 19.3344ZM26.6656 20C26.6594 20 26.6531 20 26.6438 20C27.475 19.2656 27.9969 18.1938 27.9969 17C27.9969 16.7625 27.975 16.5312 27.9375 16.3031C28.3625 16.1062 28.8344 16 29.3313 16H30.6656C32.5062 16 34 17.4938 34 19.3344C34 19.7031 33.7 20 33.3344 20H26.6656ZM21 17C21 16.2044 21.3161 15.4413 21.8787 14.8787C22.4413 14.3161 23.2044 14 24 14C24.7956 14 25.5587 14.3161 26.1213 14.8787C26.6839 15.4413 27 16.2044 27 17C27 17.7956 26.6839 18.5587 26.1213 19.1213C25.5587 19.6839 24.7956 20 24 20C23.2044 20 22.4413 19.6839 21.8787 19.1213C21.3161 18.5587 21 17.7956 21 17ZM18 25.1656C18 22.8656 19.8656 21 22.1656 21H25.8344C28.1344 21 30 22.8656 30 25.1656C30 25.625 29.6281 26 29.1656 26H18.8344C18.375 26 18 25.6281 18 25.1656Z" fill="var(--fill-0, #F99D1B)"/>
</g>
</svg>
