<svg preserveAspectRatio="none" width="100%" height="100%" overflow="visible" style="display: block;" viewBox="0 0 22 11" fill="none" xmlns="http://www.w3.org/2000/svg">
<g id="Group">
<path id="Vector" d="M10.6649 2.55578C10.6649 2.55578 8.05889 1.37778 6.66489 1.13778C4.85789 0.827778 2.83189 1.13778 1.16489 1.13778C1.16489 1.13778 0.793889 4.35778 1.16489 5.90078C1.42189 6.96978 1.88089 8.06678 2.66489 8.83778C3.32689 9.48778 4.25489 9.87978 5.16489 10.0638C6.47389 10.3288 7.94289 10.3758 9.16489 9.83778C9.80489 9.55578 10.6649 8.37378 10.6649 8.37378M10.6649 2.55578C10.6649 2.55578 13.2709 1.37778 14.6649 1.13778C16.4719 0.827778 18.4979 1.13778 20.1649 1.13778C20.1649 1.13778 20.5359 4.35778 20.1649 5.90078C19.9079 6.96978 19.4489 8.06678 18.6649 8.83778C18.0029 9.48778 17.0749 9.87978 16.1649 10.0638C14.8559 10.3288 13.3869 10.3758 12.1649 9.83778C11.5249 9.55578 10.6649 8.37378 10.6649 8.37378" stroke="var(--stroke-0, #F99D1B)" stroke-width="1.5" stroke-linecap="round" stroke-linejoin="round"/>
<path id="Vector_2" d="M8.59589 5.88778C8.50089 6.64378 7.53489 7.14478 6.43889 7.00778C5.34189 6.86878 4.53089 6.14378 4.62589 5.38778C4.72089 4.63178 5.68689 4.13078 6.78389 4.26778C7.87989 4.40678 8.69089 5.13178 8.59589 5.88778ZM12.7339 5.88778C12.8289 6.64378 13.7949 7.14478 14.8909 7.00778C15.9879 6.86878 16.7989 6.14378 16.7039 5.38778C16.6089 4.63178 15.6429 4.13078 14.5459 4.26778C13.4499 4.40678 12.6389 5.13178 12.7339 5.88778Z" stroke="var(--stroke-0, #F99D1B)" stroke-width="1.5" stroke-linecap="round" stroke-linejoin="round"/>
</g>
</svg>
