<svg preserveAspectRatio="none" width="100%" height="100%" overflow="visible" style="display: block;" viewBox="0 0 3643 4461" fill="none" xmlns="http://www.w3.org/2000/svg">
<g id="Group">
<path id="Vector" d="M2150.73 2003.27C1940.05 2123.88 1826.47 2539.06 1911.08 2751.32C2004.56 2985.71 2589.1 2950.11 2656.17 2892.95C2723.25 2835.8 2174.9 2652.91 2249.73 2437.24C2332.83 2197.85 2750.11 2197.53 2738.75 2095.31C2727.58 1994.73 2394.25 1863.87 2150.73 2003.27Z" stroke="var(--stroke-0, #7879F1)" stroke-opacity="0.03" stroke-width="5" stroke-miterlimit="10"/>
<path id="Vector_2" d="M2084.77 1973.78C1837.83 2078.89 1730.69 2581.44 1839.54 2818.2C1962.91 3086.36 2597.97 2986.96 2692.24 2944.52C2773.5 2908 2245.99 2662.04 2309.05 2401.44C2377.5 2118.3 2753.86 2072.32 2725.74 2006.62C2695.52 1936.2 2374.55 1850.73 2084.77 1973.78Z" stroke="var(--stroke-0, #7879F1)" stroke-opacity="0.03" stroke-width="5" stroke-miterlimit="10"/>
<path id="Vector_3" d="M2018.82 1944.35C1736.01 2033.63 1635.11 2623.75 1768.01 2885.01C1921.53 3187.2 2601.78 3022.96 2728.31 2996.16C2820.28 2976.45 2317.53 2671.51 2368.31 2365.51C2422.51 2039.14 2766.08 1943.43 2712.74 1918.4C2672.93 1874.06 2355.89 1837.86 2018.82 1944.35Z" stroke="var(--stroke-0, #7879F1)" stroke-opacity="0.03" stroke-width="5" stroke-miterlimit="10"/>
<path id="Vector_4" d="M1952.86 1914.66C1634.38 1988.76 1539.72 2665.79 1696.66 2951.69C1880.6 3287.25 2614.59 3106.4 2764.57 3047.6C2858.51 3010.75 2389.53 2680.83 2427.76 2329.64C2468.03 1960.05 2774.23 1816.31 2699.93 1829.91C2645.6 1813.69 2337.17 1825.38 1952.86 1914.66Z" stroke="var(--stroke-0, #7879F1)" stroke-opacity="0.03" stroke-width="5" stroke-miterlimit="10"/>
<path id="Vector_5" d="M1886.9 1885.36C1532.88 1944.48 1444.46 2708.1 1624.92 3018.76C1839.34 3387.96 2610.32 3146.07 2800.43 3099.37C2907.12 3073.09 2461.32 2690.62 2486.88 2294.03C2513.16 1881.22 2789.07 1706.01 2686.72 1741.68C2621.16 1764.48 2318.57 1813.22 1886.9 1885.36Z" stroke="var(--stroke-0, #7879F1)" stroke-opacity="0.03" stroke-width="5" stroke-miterlimit="10"/>
<path id="Vector_6" d="M1821.02 1855.86C1431.39 1900.33 1349.28 2750.27 1553.39 3085.57C1798.49 3488.33 2607.24 3115.39 2836.57 3151.26C2955.41 3169.72 2533.59 2700.48 2546.21 2258.43C2559.35 1802.52 2799.13 1575.81 2673.72 1653.59C2595.67 1701.68 2300.06 1801.27 1821.02 1855.86Z" stroke="var(--stroke-0, #7879F1)" stroke-opacity="0.03" stroke-width="5" stroke-miterlimit="10"/>
<path id="Vector_7" d="M1755.07 1826.43C1329.9 1856.25 1254.16 2792.12 1481.79 3152.45C1757.7 3588.65 2610.06 3142.46 2872.57 3202.57C3001 3232 2605.79 2709.87 2605.4 2222.36C2605.01 1723.09 2807.08 1445.87 2660.65 1564.91C2568.81 1639.6 2281.53 1789.44 1755.07 1826.43Z" stroke="var(--stroke-0, #7879F1)" stroke-opacity="0.03" stroke-width="5" stroke-miterlimit="10"/>
<path id="Vector_8" d="M1689.1 1796.93C1228.39 1812.31 1159.22 2834.36 1410.23 3219.32C1716.76 3688.96 2613.6 3168.54 2908.63 3254.2C3046.98 3294.34 2678.18 2719.33 2664.71 2186.56C2650.98 1644.2 2814.49 1316.98 2647.63 1476.55C2541.47 1577.98 2262.86 1777.82 1689.1 1796.93Z" stroke="var(--stroke-0, #7879F1)" stroke-opacity="0.03" stroke-width="5" stroke-miterlimit="10"/>
<path id="Vector_9" d="M1623.15 1767.44C1126.9 1768.42 1063.97 2876.4 1338.7 3286.2C1675.97 3789.27 2617.74 3194.23 2944.7 3305.9C3093.3 3356.68 2750.64 2728.99 2723.97 2150.82C2696.97 1565.23 2821.79 1188.68 2634.63 1388.19C2513.88 1516.75 2244.41 1766.25 1623.15 1767.44Z" stroke="var(--stroke-0, #7879F1)" stroke-opacity="0.03" stroke-width="5" stroke-miterlimit="10"/>
<path id="Vector_10" d="M1557.19 1738.01C1025.08 1724.87 968.911 2918.38 1267.16 3353.01C1635.04 3889.46 2622.41 3219.19 2980.76 3357.41C3139.87 3418.77 2823.1 2738.45 2783.22 2114.95C2743.02 1486.14 2829.21 1060.51 2621.55 1299.7C2486.23 1455.72 2225.82 1754.82 1557.19 1738.01Z" stroke="var(--stroke-0, #7879F1)" stroke-opacity="0.03" stroke-width="5" stroke-miterlimit="10"/>
<path id="Vector_11" d="M1491.24 1708.51C923.78 1680.85 873.721 2960.36 1195.62 3419.88C1594.51 3989.7 2627.73 3244.09 3016.83 3409.04C3186.65 3480.91 2895.69 2747.97 2842.55 2079.15C2789.14 1407.04 2836.37 932.673 2608.55 1211.34C2458.5 1394.82 2207.16 1743.46 1491.24 1708.51Z" stroke="var(--stroke-0, #7879F1)" stroke-opacity="0.03" stroke-width="5" stroke-miterlimit="10"/>
<path id="Vector_12" d="M1425.28 1679.01C822.214 1637.1 778.923 3002.34 1124.07 3486.76C1553.84 4089.89 2632.78 3268.79 3052.89 3460.48C3233.48 3542.99 2968.21 2757.56 2901.8 2043.15C2835.25 1327.82 2843.66 804.768 2595.54 1122.79C2430.84 1333.99 2188.5 1732.09 1425.28 1679.01Z" stroke="var(--stroke-0, #7879F1)" stroke-opacity="0.03" stroke-width="5" stroke-miterlimit="10"/>
<path id="Vector_13" d="M1359.33 1649.58C720.596 1593.41 683.939 3044.58 1052.54 3553.57C1513.18 4190.07 2638.38 3293.42 3089.03 3512.25C3280.59 3605.27 3040.88 2766.96 2961.13 2007.48C2881.38 1248 2850.96 677.258 2582.54 1034.37C2403.13 1273.23 2169.85 1720.86 1359.33 1649.58Z" stroke="var(--stroke-0, #7879F1)" stroke-opacity="0.03" stroke-width="5" stroke-miterlimit="10"/>
<path id="Vector_14" d="M1293.38 1620.09C618.97 1549.73 588.948 3086.23 980.939 3620.44C1472.52 4290.51 2644.22 3318.25 3125.03 3563.88C3327.7 3667.48 3113.47 2776.42 3020.38 1971.68C2927.56 1169.76 2858.32 549.747 2569.47 946.14C2375.41 1212.53 2151.2 1709.56 1293.38 1620.09Z" stroke="var(--stroke-0, #7879F1)" stroke-opacity="0.03" stroke-width="5" stroke-miterlimit="10"/>
<path id="Vector_15" d="M1227.41 1590.59C517.331 1506.04 494.995 3127.42 909.585 3687.32C1433.36 4389.45 2650.45 3342.43 3161.28 3615.45C3375.05 3729.69 3186.31 2785.88 3079.82 1935.87C2973.93 1090.67 2865.86 422.173 2556.64 857.718C2347.67 1151.83 2132.4 1698.39 1227.41 1590.59Z" stroke="var(--stroke-0, #7879F1)" stroke-opacity="0.03" stroke-width="5" stroke-miterlimit="10"/>
<path id="Vector_16" d="M1161.46 1561.16C415.711 1462.42 399.945 3169.39 837.855 3754.06C1392.37 4489.83 2656.31 3366.47 3197.16 3666.95C3422.16 3791.77 3258.78 2795.21 3138.89 1899.81C3019.98 1011.24 2873.03 294.464 2543.45 769.031C2319.96 1091.12 2113.68 1687.16 1161.46 1561.16Z" stroke="var(--stroke-0, #7879F1)" stroke-opacity="0.03" stroke-width="5" stroke-miterlimit="10"/>
<path id="Vector_17" d="M1095.51 1531.66C313.756 1418.8 304.822 3211.44 766.317 3821C1351.58 4589.61 2662.48 3391.3 3233.23 3718.65C3469.72 3854.18 3333.01 2804.6 3198.15 1864.2C3067.75 932.146 2880.39 167.215 2530.44 680.936C2292.24 1030.49 2094.9 1675.99 1095.51 1531.66Z" stroke="var(--stroke-0, #7879F1)" stroke-opacity="0.03" stroke-width="5" stroke-miterlimit="10"/>
<path id="Vector_18" d="M1029.55 1502.17C212.133 1376.63 209.702 3253.48 694.781 3887.88C1310.79 4690.26 2668.79 3415.75 3269.36 3770.29C3516.83 3916.39 3405.35 2814.06 3257.47 1828.4C3113.67 853.056 2887.75 39.8399 2517.37 592.516C2264.52 969.858 2075.85 1666.67 1029.55 1502.17Z" stroke="var(--stroke-0, #7879F1)" stroke-opacity="0.03" stroke-width="5" stroke-miterlimit="10"/>
<path id="Vector_19" d="M963.585 1472.74C110.494 1332.68 114.698 3295.46 623.229 3954.76C1269.91 4790.5 2675.15 3440.12 3305.41 3821.92C3564.18 3978.67 3477.73 2823.39 3316.71 1792.6C3159.58 773.958 2895.16 -87.6075 2504.35 504.157C2236.59 909.549 2057.11 1655.1 963.585 1472.74Z" stroke="var(--stroke-0, #7879F1)" stroke-opacity="0.03" stroke-width="5" stroke-miterlimit="10"/>
<path id="Vector_20" d="M897.632 1443.24C8.86897 1288.73 19.5112 3337.5 551.691 4021.57C1229.12 4890.56 2681.66 3464.55 3341.48 3873.49C3611.61 4040.95 3550.45 2833.05 3375.97 1756.99C3205.17 695.062 2901.47 -215.511 2491.35 415.932C2208.28 848.127 2038.39 1643.47 897.632 1443.24Z" stroke="var(--stroke-0, #7879F1)" stroke-opacity="0.03" stroke-width="5" stroke-miterlimit="10"/>
<path id="Vector_21" d="M831.684 1413.74C-92.7505 1244.58 -75.8016 3379.61 480.16 4088.44C1188.33 4991 2688.17 3488.99 3377.56 3924.86C3659.12 4103.02 3622.53 2842.24 3435.3 1720.73C3251.43 615.703 2909.43 -342.694 2478.35 327.31C2180.96 787.819 2019.81 1632.17 831.684 1413.74Z" stroke="var(--stroke-0, #7879F1)" stroke-opacity="0.03" stroke-width="5" stroke-miterlimit="10"/>
<path id="Vector_22" d="M2465.27 238.953C2153.62 727.447 2000.89 1620.28 765.723 1384.31C-194.448 1200.83 -170.733 3421.52 408.549 4155.32C1147.53 5091.31 2694.67 3513.43 3413.62 3976.7C3995 4351.41 3376.63 -1189.68 2465.27 238.953Z" stroke="var(--stroke-0, #7879F1)" stroke-opacity="0.03" stroke-width="5" stroke-miterlimit="10"/>
</g>
</svg>
