<svg width="25" height="25" viewBox="0 0 25 25" fill="none" xmlns="http://www.w3.org/2000/svg">
<path d="M17 3.1709H8C5.51472 3.1709 3.5 5.18562 3.5 7.6709V16.6709C3.5 19.1562 5.51472 21.1709 8 21.1709H17C19.4853 21.1709 21.5 19.1562 21.5 16.6709V7.6709C21.5 5.18562 19.4853 3.1709 17 3.1709Z" stroke="#62748E" stroke-linecap="round" stroke-linejoin="round"/>
<path d="M8.5 16.5459V10.9209M12.5 16.5459V13.6709M12.5 13.6709V10.9209M12.5 13.6709C12.5 12.3833 13.722 11.6709 14.9 11.6709C16.5 11.6709 16.5 13.0459 16.5 14.5459V16.5459" stroke="#62748E" stroke-linecap="round" stroke-linejoin="round"/>
<path d="M8.5 7.7959L8.5 8.2959" stroke="#62748E" stroke-linecap="round" stroke-linejoin="round"/>
</svg>
