<svg preserveAspectRatio="none" width="100%" height="100%" overflow="visible" style="display: block;" viewBox="0 0 48 36" fill="none" xmlns="http://www.w3.org/2000/svg">
<g id="div">
<path d="M40 0C44.4183 5.15405e-07 48 3.58172 48 8V28C48 32.4183 44.4183 36 40 36H8C3.58172 36 3.22139e-08 32.4183 0 28V8C0 3.58172 3.58172 1.28851e-07 8 0H40Z" stroke="var(--stroke-0, #E5E7EB)"/>
<path id="Vector" d="M30 18C30 17.2121 29.8448 16.4319 29.5433 15.7039C29.2417 14.9759 28.7998 14.3145 28.2426 13.7574C27.6855 13.2002 27.0241 12.7583 26.2961 12.4567C25.5681 12.1552 24.7879 12 24 12C23.2121 12 22.4319 12.1552 21.7039 12.4567C20.9759 12.7583 20.3145 13.2002 19.7574 13.7574C19.2002 14.3145 18.7583 14.9759 18.4567 15.7039C18.1552 16.4319 18 17.2121 18 18C18 18.7879 18.1552 19.5681 18.4567 20.2961C18.7583 21.0241 19.2002 21.6855 19.7574 22.2426C20.3145 22.7998 20.9759 23.2417 21.7039 23.5433C22.4319 23.8448 23.2121 24 24 24C24.7879 24 25.5681 23.8448 26.2961 23.5433C27.0241 23.2417 27.6855 22.7998 28.2426 22.2426C28.7998 21.6855 29.2417 21.0241 29.5433 20.2961C29.8448 19.5681 30 18.7879 30 18ZM16 18C16 15.8783 16.8429 13.8434 18.3431 12.3431C19.8434 10.8429 21.8783 10 24 10C26.1217 10 28.1566 10.8429 29.6569 12.3431C31.1571 13.8434 32 15.8783 32 18C32 20.1217 31.1571 22.1566 29.6569 23.6569C28.1566 25.1571 26.1217 26 24 26C21.8783 26 19.8434 25.1571 18.3431 23.6569C16.8429 22.1566 16 20.1217 16 18ZM24 20.5C24.663 20.5 25.2989 20.2366 25.7678 19.7678C26.2366 19.2989 26.5 18.663 26.5 18C26.5 17.337 26.2366 16.7011 25.7678 16.2322C25.2989 15.7634 24.663 15.5 24 15.5C23.337 15.5 22.7011 15.7634 22.2322 16.2322C21.7634 16.7011 21.5 17.337 21.5 18C21.5 18.663 21.7634 19.2989 22.2322 19.7678C22.7011 20.2366 23.337 20.5 24 20.5ZM24 13.5C25.1935 13.5 26.3381 13.9741 27.182 14.818C28.0259 15.6619 28.5 16.8065 28.5 18C28.5 19.1935 28.0259 20.3381 27.182 21.182C26.3381 22.0259 25.1935 22.5 24 22.5C22.8065 22.5 21.6619 22.0259 20.818 21.182C19.9741 20.3381 19.5 19.1935 19.5 18C19.5 16.8065 19.9741 15.6619 20.818 14.818C21.6619 13.9741 22.8065 13.5 24 13.5ZM23 18C23 17.7348 23.1054 17.4804 23.2929 17.2929C23.4804 17.1054 23.7348 17 24 17C24.2652 17 24.5196 17.1054 24.7071 17.2929C24.8946 17.4804 25 17.7348 25 18C25 18.2652 24.8946 18.5196 24.7071 18.7071C24.5196 18.8946 24.2652 19 24 19C23.7348 19 23.4804 18.8946 23.2929 18.7071C23.1054 18.5196 23 18.2652 23 18Z" fill="var(--fill-0, #F99D1B)"/>
</g>
</svg>
