<svg preserveAspectRatio="none" width="100%" height="100%" overflow="visible" style="display: block;" viewBox="0 0 17 17" fill="none" xmlns="http://www.w3.org/2000/svg">
<g id="Frame 1984079718">
<path id="Vector" d="M16.3622 6.28827L16.3397 6.19551C16.2215 5.71115 16.0592 5.23868 15.8549 4.78406L15.7925 4.64617L15.6725 4.73893C15.3776 4.96456 15.0453 5.1902 14.593 5.47098L14.508 5.52363L14.5455 5.6189C14.6205 5.80442 14.6879 5.99746 14.7479 6.19551L14.7904 6.34844C14.8079 6.41111 14.8229 6.47128 14.8429 6.54649L14.8579 6.60415C15.1968 8.00885 15.0688 9.48619 14.4934 10.8112C13.918 12.1361 12.9267 13.2361 11.6705 13.9436C10.4143 14.6511 8.96201 14.9273 7.53486 14.7302C6.10771 14.5331 4.78388 13.8734 3.76501 12.8516C2.83682 11.9259 2.20519 10.7432 1.95098 9.45513C1.69678 8.16705 1.83157 6.83217 2.3381 5.6214L2.36809 5.53366L2.26064 5.45845C2.14069 5.38324 1.54594 5.00217 1.19109 4.75147L1.07364 4.66874L1.01366 4.7991C0.401419 6.15357 0.169544 7.65007 0.343061 9.12708C0.516578 10.6041 1.0889 12.0055 1.99825 13.1801C2.20814 13.4439 2.43344 13.6951 2.67296 13.9322C3.42876 14.6922 4.32656 15.2951 5.31497 15.7065C6.30337 16.1179 7.36295 16.3297 8.43305 16.3297C9.50314 16.3297 10.5627 16.1179 11.5511 15.7065C12.5395 15.2951 13.4373 14.6922 14.1931 13.9322C15.1827 12.9523 15.9025 11.7322 16.2826 10.3905C16.6627 9.04879 16.6901 7.63122 16.3622 6.27573V6.28827Z" fill="var(--fill-0, #E2E8F0)"/>
<path id="Vector_2" d="M13.513 1.77283C12.0697 0.625062 10.2819 0.00046875 8.44016 0.00046875C6.59836 0.00046875 4.81065 0.625062 3.36728 1.77283L3.24734 1.8681L3.36979 1.96086C3.74383 2.24279 4.13527 2.5007 4.54179 2.73302L4.60677 2.77313L4.67174 2.73051C5.7738 1.9559 7.08632 1.53934 8.43194 1.5371C9.77757 1.53486 11.0915 1.94705 12.1961 2.71798L12.2611 2.78316L12.3385 2.73803C12.5884 2.60265 12.9183 2.3695 13.1907 2.18398C13.3231 2.09122 13.4406 2.0135 13.5055 1.97089L13.6405 1.88314L13.513 1.77283Z" fill="var(--fill-0, #E2E8F0)"/>
<path id="Vector_3" fill-rule="evenodd" clip-rule="evenodd" d="M4.80229 9.74538C5.06739 9.74538 5.32164 9.63973 5.5091 9.45166C5.69656 9.2636 5.80187 9.00853 5.80187 8.74257C5.80187 8.47661 5.69656 8.22154 5.5091 8.03348C5.32164 7.84542 5.06739 7.73976 4.80229 7.73976C4.53718 7.73976 4.28293 7.84542 4.09548 8.03348C3.90802 8.22154 3.80271 8.47661 3.80271 8.74257C3.80271 9.00853 3.90802 9.2636 4.09548 9.45166C4.28293 9.63973 4.53718 9.74538 4.80229 9.74538Z" fill="var(--fill-0, #E2E8F0)"/>
<path id="Vector_4" fill-rule="evenodd" clip-rule="evenodd" d="M12.0802 9.74538C12.2779 9.74538 12.4711 9.68656 12.6355 9.57637C12.7999 9.46618 12.928 9.30957 13.0037 9.12633C13.0793 8.94309 13.0991 8.74146 13.0605 8.54693C13.022 8.35241 12.9268 8.17372 12.787 8.03348C12.6472 7.89323 12.4691 7.79773 12.2752 7.75903C12.0813 7.72034 11.8803 7.7402 11.6976 7.8161C11.515 7.892 11.3589 8.02053 11.249 8.18544C11.1392 8.35035 11.0806 8.54423 11.0806 8.74257C11.0806 9.00853 11.1859 9.2636 11.3734 9.45166C11.5608 9.63973 11.8151 9.74538 12.0802 9.74538Z" fill="var(--fill-0, #E2E8F0)"/>
<path id="Vector_5" fill-rule="evenodd" clip-rule="evenodd" d="M15.7904 0.965774L15.7529 0.940704L15.4406 1.49977C15.3681 1.61008 15.2956 1.73041 15.2231 1.84072C14.9701 2.16339 14.677 2.45236 14.351 2.70063C13.9962 2.95133 13.264 3.45274 13.264 3.45274C13.0141 3.61068 12.7642 3.75609 12.4893 3.91403C12.3943 3.9742 12.2844 4.0469 12.1744 4.10707C11.0999 4.75137 10.0228 5.43077 9.20067 6.38845C8.90303 6.73393 8.65106 7.11648 8.45099 7.52664C8.24636 7.11911 7.99474 6.7371 7.7013 6.38845C6.87915 5.43077 5.7921 4.75137 4.72755 4.10707C4.61759 4.0469 4.51014 3.9742 4.40018 3.91403C4.15029 3.75609 3.8804 3.61068 3.638 3.45274C3.26088 3.22424 2.89787 2.97308 2.55096 2.70063C2.22347 2.45498 1.9309 2.16568 1.68132 1.84072C1.59234 1.73374 1.51211 1.61972 1.44143 1.49977L1.12656 0.930676L1.08907 0.955746L-0.00046875 1.56997L0.314398 2.14157C0.326893 2.16664 0.33939 2.17666 0.351884 2.20173C0.491006 2.44291 0.652485 2.67038 0.83418 2.88114C1.10225 3.20213 1.40667 3.49071 1.7413 3.74104C1.91373 3.87391 2.40602 4.24245 2.80336 4.49315C3.10573 4.6887 3.4181 4.87171 3.73297 5.06475C3.77045 5.08982 3.81793 5.11238 3.85291 5.13745C5.03992 5.84192 6.25941 6.59152 7.02159 7.75729C7.5498 8.5776 7.81893 9.53875 7.79376 10.515V11.1518H9.10072V10.4975C9.07488 9.52076 9.34499 8.55918 9.87538 7.73974C10.6251 6.57648 11.8446 5.83691 13.0291 5.13244L13.1615 5.05974C13.4764 4.86669 13.7912 4.68368 14.0811 4.48813C14.4545 4.25875 14.8141 4.00762 15.1582 3.73603C15.4887 3.48169 15.7918 3.19349 16.0628 2.87612C16.2413 2.66514 16.3994 2.43766 16.5351 2.19672C16.5476 2.17165 16.5601 2.16162 16.5701 2.13655L16.8849 1.56495L15.7904 0.965774Z" fill="var(--fill-0, #615FFF)"/>
</g>
</svg>
