<svg preserveAspectRatio="none" width="100%" height="100%" overflow="visible" style="display: block;" viewBox="0 0 899 869" fill="none" xmlns="http://www.w3.org/2000/svg">
<g id="Frame 1984079718" filter="url(#filter0_d_1373_1048)">
<path id="Vector" d="M719.182 94.3216C642.369 33.2396 547.231 0 449.214 0C351.198 0 256.059 33.2396 179.246 94.3216L172.863 99.3915L179.379 104.328C199.285 119.332 220.117 133.057 241.751 145.421L245.209 147.556L248.666 145.287C307.316 104.064 377.166 81.8957 448.777 81.7764C520.389 81.6571 590.311 103.593 649.097 144.62L652.555 148.089L656.678 145.688C669.976 138.483 687.531 126.075 702.027 116.202C709.075 111.266 715.326 107.13 718.783 104.862L725.965 100.192L719.182 94.3216Z" fill="var(--fill-0, #231F20)"/>
<path id="Vector_2" fill-rule="evenodd" clip-rule="evenodd" d="M255.595 518.59C269.703 518.59 283.234 512.968 293.21 502.959C303.186 492.951 308.79 479.377 308.79 465.223C308.79 451.069 303.186 437.495 293.21 427.486C283.234 417.478 269.703 411.855 255.595 411.855C241.486 411.855 227.956 417.478 217.98 427.486C208.003 437.495 202.399 451.069 202.399 465.223C202.399 479.377 208.003 492.951 217.98 502.959C227.956 512.968 241.486 518.59 255.595 518.59Z" fill="url(#paint0_linear_1373_1048)"/>
<path id="Vector_3" fill-rule="evenodd" clip-rule="evenodd" d="M642.88 518.59C653.401 518.59 663.686 515.46 672.434 509.596C681.182 503.732 688 495.397 692.026 485.646C696.053 475.894 697.106 465.164 695.054 454.811C693.001 444.459 687.935 434.95 680.495 427.486C673.055 420.023 663.577 414.94 653.258 412.881C642.939 410.822 632.243 411.878 622.523 415.918C612.803 419.957 604.495 426.797 598.649 435.573C592.804 444.35 589.684 454.668 589.684 465.223C589.684 479.377 595.289 492.951 605.265 502.959C615.241 512.968 628.772 518.59 642.88 518.59Z" fill="url(#paint1_linear_1373_1048)"/>
<path id="Vector_4" fill-rule="evenodd" clip-rule="evenodd" d="M624.246 319.834L623.354 319.238L615.917 332.53C614.192 335.152 612.467 338.013 610.741 340.636C604.716 348.307 597.738 355.177 589.978 361.079C581.53 367.04 564.098 378.96 564.098 378.96C558.149 382.715 552.199 386.172 545.655 389.927C543.394 391.358 540.776 393.086 538.159 394.517C512.576 409.834 486.935 425.987 467.361 448.755C460.275 456.968 454.276 466.063 449.513 475.815C444.641 466.126 438.651 457.044 431.665 448.755C412.091 425.987 386.211 409.834 360.867 394.517C358.249 393.086 355.691 391.358 353.073 389.927C347.124 386.172 340.699 382.715 334.928 378.96C325.949 373.528 317.307 367.557 309.048 361.079C301.251 355.239 294.286 348.361 288.344 340.636C286.225 338.092 284.315 335.381 282.633 332.53L275.136 319L274.244 319.596L248.305 334.199L255.801 347.788C256.098 348.384 256.396 348.623 256.693 349.219C260.005 354.952 263.85 360.36 268.176 365.371C274.558 373.002 281.805 379.863 289.772 385.815C293.877 388.974 305.597 397.735 315.057 403.695C322.256 408.344 329.692 412.695 337.189 417.285C338.081 417.881 339.211 418.417 340.044 419.013C368.304 435.762 397.337 453.583 415.482 481.298C428.058 500.8 434.465 523.651 433.866 546.861V562H464.981V546.444C464.366 523.223 470.797 500.362 483.424 480.881C501.272 453.225 530.306 435.642 558.506 418.894L561.659 417.166C569.155 412.576 576.651 408.225 583.553 403.576C592.441 398.123 601.003 392.152 609.194 385.695C617.062 379.649 624.28 372.797 630.731 365.252C634.98 360.236 638.746 354.827 641.976 349.099C642.273 348.503 642.57 348.265 642.808 347.669L650.305 334.079L624.246 319.834Z" fill="url(#paint2_linear_1373_1048)"/>
</g>
<defs>
<filter id="filter0_d_1373_1048" x="-4" y="0" width="906.609" height="877" filterUnits="userSpaceOnUse" color-interpolation-filters="sRGB">
<feFlood flood-opacity="0" result="BackgroundImageFix"/>
<feColorMatrix in="SourceAlpha" type="matrix" values="0 0 0 0 0 0 0 0 0 0 0 0 0 0 0 0 0 0 127 0" result="hardAlpha"/>
<feOffset dy="4"/>
<feGaussianBlur stdDeviation="2"/>
<feComposite in2="hardAlpha" operator="out"/>
<feColorMatrix type="matrix" values="0 0 0 0 0 0 0 0 0 0 0 0 0 0 0 0 0 0 0.25 0"/>
<feBlend mode="normal" in2="BackgroundImageFix" result="effect1_dropShadow_1373_1048"/>
<feBlend mode="normal" in="SourceGraphic" in2="effect1_dropShadow_1373_1048" result="shape"/>
</filter>
<linearGradient id="paint0_linear_1373_1048" x1="255.595" y1="518.59" x2="255.595" y2="411.855" gradientUnits="userSpaceOnUse">
<stop stop-color="#5D5FEF"/>
<stop offset="1" stop-color="#7879F1"/>
</linearGradient>
<linearGradient id="paint1_linear_1373_1048" x1="642.88" y1="518.59" x2="642.88" y2="411.855" gradientUnits="userSpaceOnUse">
<stop stop-color="#5D5FEF"/>
<stop offset="1" stop-color="#7879F1"/>
</linearGradient>
<linearGradient id="paint2_linear_1373_1048" x1="449.305" y1="562" x2="449.305" y2="319" gradientUnits="userSpaceOnUse">
<stop stop-color="#5D5FEF"/>
<stop offset="1" stop-color="#7879F1"/>
</linearGradient>
</defs>
</svg>
