<svg width="18" height="17" viewBox="0 0 18 17" fill="none" xmlns="http://www.w3.org/2000/svg">
<path d="M17.2655 6.29444L17.2431 6.20168C17.1248 5.71732 16.9625 5.24485 16.7583 4.79023L16.6958 4.65234L16.5758 4.7451C16.281 4.97074 15.9486 5.19637 15.4963 5.47715L15.4113 5.5298L15.4488 5.62507C15.5238 5.81059 15.5912 6.00363 15.6512 6.20168L15.6937 6.35461C15.7112 6.41728 15.7262 6.47745 15.7462 6.55266L15.7612 6.61032C16.1001 8.01502 15.9721 9.49236 15.3967 10.8173C14.8213 12.1423 13.83 13.2423 12.5738 13.9498C11.3176 14.6573 9.86533 14.9335 8.43818 14.7364C7.01102 14.5392 5.6872 13.8796 4.66833 12.8578C3.74014 11.932 3.10851 10.7494 2.8543 9.4613C2.6001 8.17322 2.73489 6.83834 3.24142 5.62757L3.27141 5.53983L3.16396 5.46462C3.04401 5.38941 2.44926 5.00834 2.0944 4.75764L1.97695 4.67491L1.91698 4.80527C1.30474 6.15974 1.07286 7.65624 1.24638 9.13325C1.4199 10.6103 1.99222 12.0117 2.90157 13.1862C3.11145 13.4501 3.33675 13.7012 3.57628 13.9383C4.33208 14.6983 5.22988 15.3013 6.21829 15.7127C7.20669 16.1241 8.26627 16.3359 9.33637 16.3359C10.4065 16.3359 11.466 16.1241 12.4545 15.7127C13.4429 15.3013 14.3407 14.6983 15.0964 13.9383C16.086 12.9585 16.8058 11.7384 17.1859 10.3967C17.566 9.05496 17.5935 7.63739 17.2655 6.28191V6.29444Z" fill="#020618"/>
<path d="M14.4163 1.7792C12.973 0.631429 11.1852 0.00683594 9.34345 0.00683594C7.50166 0.00683594 5.71395 0.631429 4.27058 1.7792L4.15063 1.87446L4.27308 1.96722C4.64712 2.24916 5.03857 2.50706 5.44509 2.73939L5.51006 2.7795L5.57504 2.73688C6.6771 1.96227 7.98962 1.54571 9.33524 1.54347C10.6809 1.54122 11.9948 1.95341 13.0994 2.72434L13.1644 2.78953L13.2418 2.7444C13.4917 2.60902 13.8216 2.37587 14.094 2.19035C14.2264 2.09759 14.3439 2.01987 14.4088 1.97725L14.5438 1.88951L14.4163 1.7792Z" fill="#020618"/>
<path fill-rule="evenodd" clip-rule="evenodd" d="M5.70564 9.75171C5.97074 9.75171 6.22499 9.64605 6.41245 9.45799C6.5999 9.26993 6.70522 9.01486 6.70522 8.7489C6.70522 8.48294 6.5999 8.22787 6.41245 8.03981C6.22499 7.85175 5.97074 7.74609 5.70564 7.74609C5.44053 7.74609 5.18628 7.85175 4.99882 8.03981C4.81137 8.22787 4.70605 8.48294 4.70605 8.7489C4.70605 9.01486 4.81137 9.26993 4.99882 9.45799C5.18628 9.64605 5.44053 9.75171 5.70564 9.75171Z" fill="#020618"/>
<path fill-rule="evenodd" clip-rule="evenodd" d="M12.9835 9.75171C13.1812 9.75171 13.3744 9.69289 13.5388 9.5827C13.7032 9.47251 13.8313 9.3159 13.907 9.13266C13.9826 8.94942 14.0024 8.74779 13.9638 8.55326C13.9253 8.35874 13.8301 8.18005 13.6903 8.03981C13.5505 7.89956 13.3724 7.80406 13.1785 7.76536C12.9846 7.72667 12.7836 7.74653 12.6009 7.82243C12.4183 7.89833 12.2622 8.02686 12.1523 8.19177C12.0425 8.35668 11.9839 8.55056 11.9839 8.7489C11.9839 9.01486 12.0892 9.26993 12.2767 9.45799C12.4641 9.64606 12.7184 9.75171 12.9835 9.75171Z" fill="#020618"/>
<path fill-rule="evenodd" clip-rule="evenodd" d="M16.6937 0.97211L16.6562 0.94704L16.3439 1.5061C16.2714 1.61641 16.1989 1.73675 16.1264 1.84706C15.8734 2.16973 15.5803 2.4587 15.2543 2.70697C14.8995 2.95767 14.1673 3.45907 14.1673 3.45907C13.9174 3.61701 13.6675 3.76242 13.3926 3.92036C13.2976 3.98053 13.1877 4.05324 13.0777 4.1134C12.0032 4.75771 10.9261 5.43711 10.104 6.39479C9.80633 6.74027 9.55436 7.12282 9.35429 7.53298C9.14966 7.12545 8.89804 6.74344 8.6046 6.39479C7.78245 5.43711 6.6954 4.75771 5.63085 4.1134C5.52089 4.05324 5.41344 3.98053 5.30349 3.92036C5.05359 3.76242 4.7837 3.61701 4.5413 3.45907C4.16418 3.23058 3.80117 2.97942 3.45426 2.70697C3.12677 2.46132 2.8342 2.17202 2.58463 1.84706C2.49564 1.74007 2.41541 1.62605 2.34473 1.5061L2.02986 0.937012L1.99238 0.962082L0.902832 1.5763L1.2177 2.1479C1.23019 2.17297 1.24269 2.183 1.25519 2.20807C1.39431 2.44924 1.55579 2.67672 1.73748 2.88747C2.00555 3.20847 2.30997 3.49705 2.6446 3.74738C2.81703 3.88025 3.30932 4.24878 3.70666 4.49949C4.00903 4.69503 4.3214 4.87804 4.63627 5.07108C4.67375 5.09616 4.72123 5.11872 4.75621 5.14379C5.94322 5.84826 7.16271 6.59786 7.92489 7.76362C8.4531 8.58393 8.72223 9.54508 8.69706 10.5213V11.1581H10.004V10.5038C9.97818 9.5271 10.2483 8.56551 10.7787 7.74607C11.5284 6.58282 12.7479 5.84325 13.9324 5.13877L14.0648 5.06607C14.3797 4.87303 14.6945 4.69002 14.9844 4.49447C15.3578 4.26508 15.7174 4.01395 16.0615 3.74237C16.392 3.48802 16.6951 3.19983 16.9661 2.88246C17.1446 2.67148 17.3027 2.44399 17.4384 2.20306C17.4509 2.17799 17.4634 2.16796 17.4734 2.14289L17.7882 1.57129L16.6937 0.97211Z" fill="#615FFF"/>
</svg>
