<svg width="20" height="20" viewBox="0 0 20 20" fill="none" xmlns="http://www.w3.org/2000/svg">
<path d="M19.1524 7.83847L19.1264 7.73128C18.9897 7.17156 18.8022 6.6256 18.5662 6.10025L18.494 5.94092L18.3554 6.04811C18.0146 6.30884 17.6306 6.56957 17.1079 6.89404L17.0097 6.95488L17.053 7.06496C17.1396 7.27934 17.2176 7.50241 17.2869 7.73128L17.336 7.908C17.3562 7.98042 17.3735 8.04995 17.3966 8.13686L17.414 8.20349C17.8056 9.82671 17.6577 11.5339 16.9928 13.065C16.3279 14.5961 15.1824 15.8672 13.7308 16.6847C12.2791 17.5023 10.6009 17.8215 8.95178 17.5937C7.30261 17.3659 5.77285 16.6036 4.59547 15.4229C3.52289 14.3531 2.793 12.9864 2.49925 11.498C2.2055 10.0095 2.36126 8.46698 2.94659 7.06786L2.98124 6.96646L2.85708 6.87955C2.71847 6.79264 2.03119 6.3523 1.62114 6.06259L1.48542 5.96699L1.41611 6.11764C0.708628 7.68282 0.440681 9.41212 0.641192 11.1189C0.841702 12.8257 1.50306 14.4451 2.55387 15.8024C2.79641 16.1073 3.05676 16.3975 3.33354 16.6715C4.20692 17.5497 5.24439 18.2465 6.38655 18.7219C7.52871 19.1973 8.75313 19.442 9.9897 19.442C11.2263 19.442 12.4507 19.1973 13.5928 18.7219C14.735 18.2465 15.7725 17.5497 16.6458 16.6715C17.7893 15.5392 18.6211 14.1293 19.0604 12.5789C19.4996 11.0284 19.5313 9.39034 19.1524 7.82398V7.83847Z" fill="#020618"/>
<path d="M15.8608 2.61742C14.1929 1.29109 12.1271 0.569336 9.99875 0.569336C7.87044 0.569336 5.80461 1.29109 4.13672 2.61742L3.99811 2.7275L4.13961 2.83469C4.57183 3.16049 5.02418 3.45851 5.49393 3.72698L5.56902 3.77333L5.6441 3.72408C6.91761 2.82897 8.4343 2.3476 9.98926 2.34501C11.5442 2.34242 13.0625 2.81873 14.339 3.70959L14.414 3.78492L14.5036 3.73277C14.7923 3.57633 15.1735 3.30691 15.4883 3.09253C15.6413 2.98534 15.777 2.89553 15.8521 2.84628L16.0081 2.74488L15.8608 2.61742Z" fill="#020618"/>
<path fill-rule="evenodd" clip-rule="evenodd" d="M5.79418 11.8332C6.10053 11.8332 6.39433 11.7112 6.61095 11.4938C6.82756 11.2765 6.94926 10.9818 6.94926 10.6744C6.94926 10.3671 6.82756 10.0724 6.61095 9.85503C6.39433 9.63771 6.10053 9.51562 5.79418 9.51562C5.48783 9.51562 5.19403 9.63771 4.97741 9.85503C4.76079 10.0724 4.6391 10.3671 4.6391 10.6744C4.6391 10.9818 4.76079 11.2765 4.97741 11.4938C5.19403 11.7112 5.48783 11.8332 5.79418 11.8332Z" fill="#020618"/>
<path fill-rule="evenodd" clip-rule="evenodd" d="M14.2036 11.8332C14.4321 11.8332 14.6554 11.7653 14.8453 11.6379C15.0353 11.5106 15.1833 11.3296 15.2708 11.1179C15.3582 10.9061 15.3811 10.6731 15.3365 10.4484C15.2919 10.2236 15.1819 10.0171 15.0204 9.85503C14.8588 9.69297 14.653 9.5826 14.4289 9.53789C14.2049 9.49318 13.9726 9.51613 13.7616 9.60383C13.5505 9.69154 13.3701 9.84007 13.2432 10.0306C13.1163 10.2212 13.0485 10.4452 13.0485 10.6744C13.0485 10.9818 13.1702 11.2765 13.3868 11.4938C13.6035 11.7112 13.8973 11.8332 14.2036 11.8332Z" fill="#020618"/>
<path fill-rule="evenodd" clip-rule="evenodd" d="M18.4921 1.68411L18.4488 1.65514L18.0879 2.30118C18.0041 2.42865 17.9204 2.5677 17.8366 2.69517C17.5442 3.06804 17.2055 3.40196 16.8288 3.68885C16.4188 3.97855 15.5727 4.55796 15.5727 4.55796C15.2839 4.74047 14.9951 4.9085 14.6775 5.09101C14.5677 5.16054 14.4407 5.24455 14.3136 5.31408C13.0719 6.05862 11.8273 6.84371 10.8773 7.95037C10.5333 8.3496 10.2422 8.79166 10.011 9.26562C9.7745 8.7947 9.48374 8.35326 9.14465 7.95037C8.19459 6.84371 6.93844 6.05862 5.70828 5.31408C5.58122 5.24455 5.45705 5.16054 5.32999 5.09101C5.04122 4.9085 4.72935 4.74047 4.44924 4.55796C4.01345 4.29392 3.59397 4.00369 3.1931 3.68885C2.81466 3.40499 2.47657 3.07068 2.18817 2.69517C2.08534 2.57155 1.99264 2.43979 1.91096 2.30118L1.5471 1.64355L1.50379 1.67252L0.244751 2.3823L0.6086 3.04282C0.623038 3.07179 0.637479 3.08337 0.651918 3.11235C0.812682 3.39104 0.999281 3.6539 1.20924 3.89744C1.51901 4.26837 1.87079 4.60185 2.25748 4.89112C2.45673 5.04466 3.02561 5.47052 3.48475 5.76022C3.83416 5.98619 4.19513 6.19767 4.55898 6.42074C4.60229 6.44972 4.65716 6.47579 4.69759 6.50476C6.06924 7.31882 7.47844 8.18503 8.35919 9.53215C8.96958 10.4801 9.28057 11.5907 9.25149 12.7189V13.4547H10.7618V12.6986C10.7319 11.57 11.044 10.4588 11.6569 9.51187C12.5233 8.16765 13.9325 7.31303 15.3012 6.49896L15.4543 6.41495C15.8181 6.19188 16.182 5.9804 16.5169 5.75443C16.9484 5.48936 17.364 5.19916 17.7615 4.88532C18.1434 4.59141 18.4938 4.25839 18.8069 3.89164C19.0131 3.64784 19.1959 3.38497 19.3527 3.10655C19.3671 3.07758 19.3815 3.06599 19.3931 3.03702L19.7569 2.3765L18.4921 1.68411Z" fill="#615FFF"/>
</svg>
