<svg width="20" height="20" viewBox="0 0 20 20" fill="none" xmlns="http://www.w3.org/2000/svg">
<path d="M10 1.6665C14.6025 1.6665 18.3333 5.39734 18.3333 9.99984C18.3333 14.6023 14.6025 18.3332 10 18.3332C5.3975 18.3332 1.66667 14.6023 1.66667 9.99984C1.66667 5.39734 5.3975 1.6665 10 1.6665ZM10 3.33317C8.23189 3.33317 6.5362 4.03555 5.28596 5.28579C4.03571 6.53604 3.33333 8.23173 3.33333 9.99984C3.33333 11.7679 4.03571 13.4636 5.28596 14.7139C6.5362 15.9641 8.23189 16.6665 10 16.6665C11.7681 16.6665 13.4638 15.9641 14.714 14.7139C15.9643 13.4636 16.6667 11.7679 16.6667 9.99984C16.6667 8.23173 15.9643 6.53604 14.714 5.28579C13.4638 4.03555 11.7681 3.33317 10 3.33317ZM10 4.99984C10.2041 4.99986 10.4011 5.0748 10.5536 5.21043C10.7062 5.34607 10.8036 5.53296 10.8275 5.73567L10.8333 5.83317V9.65484L13.0892 11.9107C13.2386 12.0606 13.3254 12.2619 13.3319 12.4735C13.3383 12.6851 13.264 12.8913 13.124 13.0501C12.9839 13.2089 12.7887 13.3084 12.5779 13.3285C12.3672 13.3486 12.1567 13.2877 11.9892 13.1582L11.9108 13.089L9.41084 10.589C9.28132 10.4594 9.19814 10.2907 9.17417 10.109L9.16667 9.99984V5.83317C9.16667 5.61216 9.25447 5.4002 9.41075 5.24392C9.56703 5.08764 9.77899 4.99984 10 4.99984Z" fill="#F6F8FF"/>
</svg>
