<svg width="17" height="17" viewBox="0 0 17 17" fill="none" xmlns="http://www.w3.org/2000/svg">
<path d="M8.80999 2.76871C8.75854 2.5478 8.2415 2.5478 8.19005 2.76871C7.89833 4.02154 7.36626 5.64606 6.45466 6.55767C5.54306 7.46928 3.91851 8.00136 2.66568 8.29309C2.44477 8.34452 2.44477 8.86156 2.66568 8.91299C3.91851 9.20472 5.54306 9.7368 6.45466 10.6484C7.36626 11.56 7.89833 13.1845 8.19005 14.4373C8.2415 14.6583 8.75854 14.6583 8.80999 14.4373C9.10172 13.1845 9.63379 11.56 10.5454 10.6484C11.4569 9.7368 13.0815 9.20472 14.3343 8.91299C14.5552 8.86156 14.5552 8.34452 14.3343 8.29309C13.0815 8.00136 11.4569 7.46928 10.5454 6.55767C9.63379 5.64606 9.10172 4.02154 8.80999 2.76871Z" fill="#5D5FEF"/>
</svg>
