<svg preserveAspectRatio="none" width="100%" height="100%" overflow="visible" style="display: block;" viewBox="0 0 12 12" fill="none" xmlns="http://www.w3.org/2000/svg">
<path id="Vector" d="M6.30999 0.165681C6.25854 -0.0552272 5.7415 -0.0552272 5.69005 0.165681C5.39833 1.41851 4.86626 3.04304 3.95466 3.95464C3.04306 4.86625 1.41851 5.39833 0.165681 5.69006C-0.0552272 5.7415 -0.0552272 6.25853 0.165681 6.30996C1.41851 6.6017 3.04306 7.13378 3.95466 8.04538C4.86626 8.95694 5.39833 10.5815 5.69005 11.8343C5.7415 12.0552 6.25854 12.0552 6.30999 11.8343C6.60172 10.5815 7.13379 8.95694 8.04538 8.04538C8.95694 7.13378 10.5815 6.6017 11.8343 6.30996C12.0552 6.25853 12.0552 5.7415 11.8343 5.69006C10.5815 5.39833 8.95694 4.86625 8.04538 3.95464C7.13379 3.04304 6.60172 1.41851 6.30999 0.165681Z" fill="var(--fill-0, #5D5FEF)"/>
</svg>
