<svg width="20" height="20" viewBox="0 0 20 20" fill="none" xmlns="http://www.w3.org/2000/svg">
<path d="M12.1512 7.83501C13.4948 8.93111 14.1667 9.47915 14.1667 10.4165C14.1667 11.3539 13.4948 11.9019 12.1512 12.998C11.7803 13.3006 11.4124 13.5855 11.0743 13.8229C10.7777 14.0311 10.4418 14.2465 10.0941 14.458C8.75358 15.2732 8.08333 15.6808 7.48218 15.2295C6.88104 14.7782 6.82641 13.8336 6.71714 11.9442C6.68624 11.4099 6.66667 10.8861 6.66667 10.4165C6.66667 9.94693 6.68624 9.42313 6.71714 8.88881C6.82641 6.99945 6.88104 6.05476 7.48218 5.6035C8.08333 5.15224 8.75358 5.55982 10.0941 6.37499C10.4418 6.58646 10.7777 6.80189 11.0743 7.01015C11.4124 7.24754 11.7803 7.53243 12.1512 7.83501Z" stroke="#0F172B" stroke-width="1.5" stroke-linecap="round" stroke-linejoin="round"/>
</svg>
