<svg preserveAspectRatio="none" width="100%" height="100%" overflow="visible" style="display: block;" viewBox="0 0 33 32" fill="none" xmlns="http://www.w3.org/2000/svg">
<g id="Frame 1984079718">
<path id="Vector" d="M31.9795 12.3219L31.9356 12.1401C31.7045 11.1909 31.3873 10.265 30.9881 9.37407L30.866 9.10385L30.6316 9.28563C30.0553 9.7278 29.4057 10.17 28.5218 10.7202L28.3557 10.8234L28.429 11.0101C28.5755 11.3737 28.7073 11.752 28.8246 12.1401L28.9076 12.4398C28.9418 12.5626 28.9711 12.6805 29.0101 12.8279L29.0394 12.9409C29.7018 15.6937 29.4517 18.5888 28.3271 21.1854C27.2026 23.7819 25.2653 25.9376 22.8102 27.324C20.3551 28.7105 17.5169 29.2518 14.7278 28.8655C11.9386 28.4792 9.3514 27.1864 7.36016 25.1841C5.54616 23.3698 4.31173 21.0522 3.81493 18.5279C3.31812 16.0037 3.58155 13.3877 4.57149 11.015L4.6301 10.8431L4.4201 10.6957C4.18567 10.5483 3.02332 9.8015 2.32982 9.3102L2.10028 9.14807L1.98307 9.40355C0.786536 12.0579 0.333371 14.9906 0.672484 17.8851C1.0116 20.7796 2.13011 23.5259 3.90729 25.8277C4.31749 26.3448 4.75781 26.8369 5.22593 27.3016C6.70301 28.7909 8.45764 29.9726 10.3893 30.7788C12.321 31.585 14.3918 32 16.4831 32C18.5745 32 20.6453 31.585 22.577 30.7788C24.5086 29.9726 26.2633 28.7909 27.7403 27.3016C29.6742 25.3814 31.0811 22.9903 31.8239 20.361C32.5668 17.7317 32.6204 14.9536 31.9795 12.2973V12.3219Z" fill="var(--fill-0, #231F20)"/>
<path id="Vector_2" d="M26.4108 3.47329C23.59 1.22401 20.0962 0 16.4967 0C12.8972 0 9.40336 1.22401 6.58253 3.47329L6.34811 3.65999L6.58742 3.84177C7.31842 4.39428 8.08345 4.89969 8.87792 5.35497L9.00491 5.43358L9.13188 5.35006C11.2857 3.83206 13.8508 3.01572 16.4806 3.01133C19.1105 3.00693 21.6783 3.8147 23.8371 5.32549L23.9641 5.45323L24.1155 5.3648C24.6038 5.09949 25.2485 4.64259 25.7808 4.27902C26.0397 4.09724 26.2692 3.94494 26.3962 3.86142L26.6599 3.68946L26.4108 3.47329Z" fill="var(--fill-0, #231F20)"/>
<path id="Vector_3" fill-rule="evenodd" clip-rule="evenodd" d="M9.38632 19.0965C9.90443 19.0965 10.4013 18.8895 10.7677 18.5209C11.134 18.1524 11.3398 17.6525 11.3398 17.1313C11.3398 16.6101 11.134 16.1103 10.7677 15.7417C10.4013 15.3732 9.90443 15.1661 9.38632 15.1661C8.86821 15.1661 8.37132 15.3732 8.00496 15.7417C7.6386 16.1103 7.43279 16.6101 7.43279 17.1313C7.43279 17.6525 7.6386 18.1524 8.00496 18.5209C8.37132 18.8895 8.86821 19.0965 9.38632 19.0965Z" fill="url(#paint0_linear_1367_921)"/>
<path id="Vector_4" fill-rule="evenodd" clip-rule="evenodd" d="M23.6088 19.0965C23.9951 19.0965 24.3728 18.9813 24.6941 18.7653C25.0153 18.5494 25.2657 18.2425 25.4136 17.8834C25.5615 17.5243 25.6001 17.1292 25.5248 16.7479C25.4494 16.3667 25.2633 16.0166 24.9901 15.7417C24.7169 15.4669 24.3688 15.2797 23.9899 15.2039C23.6109 15.1281 23.2181 15.167 22.8612 15.3157C22.5042 15.4645 22.1991 15.7164 21.9845 16.0395C21.7698 16.3627 21.6552 16.7427 21.6552 17.1313C21.6552 17.6525 21.8611 18.1524 22.2274 18.5209C22.5938 18.8895 23.0907 19.0965 23.6088 19.0965Z" fill="url(#paint1_linear_1367_921)"/>
<path id="Vector_5" fill-rule="evenodd" clip-rule="evenodd" d="M30.8609 1.89116L30.7876 1.84203L30.1772 2.93762C30.0355 3.1538 29.8939 3.38962 29.7523 3.60579C29.2576 4.23813 28.6849 4.80442 28.0478 5.29095C27.3543 5.78225 25.9233 6.76485 25.9233 6.76485C25.4349 7.07437 24.9466 7.35932 24.4094 7.66884C24.2238 7.78675 24.0089 7.92923 23.794 8.04714C21.6939 9.30978 19.589 10.6412 17.9822 12.518C17.4006 13.195 16.9081 13.9447 16.5171 14.7485C16.1172 13.9498 15.6254 13.2012 15.0519 12.518C13.4452 10.6412 11.3207 9.30978 9.24019 8.04714C9.02531 7.92923 8.8153 7.78675 8.60041 7.66884C8.11203 7.35932 7.58458 7.07437 7.11085 6.76485C6.37381 6.31707 5.66437 5.82487 4.98639 5.29095C4.34636 4.80955 3.77456 4.24261 3.28681 3.60579C3.1129 3.39613 2.95611 3.17268 2.81797 2.93762L2.2026 1.82237L2.12935 1.8715L0 3.07519L0.615359 4.19535C0.639778 4.24448 0.664202 4.26413 0.688621 4.31326C0.960513 4.78589 1.2761 5.23167 1.6312 5.64468C2.15509 6.27374 2.75005 6.83927 3.40403 7.32984C3.74101 7.59023 4.70312 8.31244 5.47965 8.80374C6.07059 9.18695 6.68107 9.5456 7.29643 9.9239C7.36969 9.97303 7.46248 10.0173 7.53086 10.0664C9.85067 11.4469 12.234 12.9159 13.7235 15.2005C14.7559 16.808 15.2818 18.6916 15.2326 20.6048V21.8527H17.7869V20.5704C17.7364 18.6563 18.2643 16.7719 19.3009 15.1661C20.766 12.8864 23.1493 11.4371 25.4643 10.0566L25.7231 9.91408C26.3385 9.53578 26.9538 9.17713 27.5203 8.79392C28.25 8.34438 28.9528 7.85224 29.6253 7.32002C30.2712 6.82158 30.8637 6.25681 31.3932 5.63486C31.742 5.2214 32.0511 4.7756 32.3163 4.30344C32.3407 4.25431 32.3651 4.23466 32.3846 4.18553L33 3.06536L30.8609 1.89116Z" fill="url(#paint2_linear_1367_921)"/>
</g>
<defs>
<linearGradient id="paint0_linear_1367_921" x1="9.38632" y1="19.0965" x2="9.38632" y2="15.1661" gradientUnits="userSpaceOnUse">
<stop stop-color="#5D5FEF"/>
<stop offset="1" stop-color="#7879F1"/>
</linearGradient>
<linearGradient id="paint1_linear_1367_921" x1="23.6088" y1="19.0965" x2="23.6088" y2="15.1661" gradientUnits="userSpaceOnUse">
<stop stop-color="#5D5FEF"/>
<stop offset="1" stop-color="#7879F1"/>
</linearGradient>
<linearGradient id="paint2_linear_1367_921" x1="16.5" y1="21.8527" x2="16.5" y2="1.82237" gradientUnits="userSpaceOnUse">
<stop stop-color="#5D5FEF"/>
<stop offset="1" stop-color="#7879F1"/>
</linearGradient>
</defs>
</svg>
