<svg preserveAspectRatio="none" width="100%" height="100%" overflow="visible" style="display: block;" viewBox="0 0 18 19" fill="none" xmlns="http://www.w3.org/2000/svg">
<path id="Vector" d="M1.89158 11.1996C1.72344 11.2001 1.55858 11.155 1.41617 11.0695C1.27375 10.984 1.15962 10.8616 1.08704 10.7166C1.01446 10.5715 0.986408 10.4098 1.00614 10.2501C1.02587 10.0904 1.09258 9.9393 1.19851 9.81442L9.99518 1.14668C10.0612 1.07383 10.1511 1.02461 10.2502 1.00708C10.3493 0.989559 10.4516 1.00477 10.5405 1.05023C10.6294 1.09569 10.6994 1.16868 10.7392 1.25724C10.779 1.34579 10.7861 1.44465 10.7593 1.53757L9.05331 6.65324C9.00301 6.782 8.98611 6.92051 9.00408 7.05689C9.02205 7.19327 9.07434 7.32345 9.15647 7.43625C9.23859 7.54905 9.34811 7.64112 9.47562 7.70455C9.60313 7.76799 9.74482 7.80089 9.88855 7.80044H16.1084C16.2766 7.79989 16.4414 7.84499 16.5838 7.93048C16.7262 8.01597 16.8404 8.13835 16.913 8.28341C16.9855 8.42846 17.0136 8.59024 16.9939 8.74994C16.9741 8.90963 16.9074 9.0607 16.8015 9.18558L8.00482 17.8533C7.93884 17.9262 7.84892 17.9754 7.74982 17.9929C7.65073 18.0104 7.54835 17.9952 7.45949 17.9498C7.37063 17.9043 7.30057 17.8313 7.26081 17.7428C7.22104 17.6542 7.21394 17.5554 7.24067 17.4624L8.94669 12.3468C8.99699 12.218 9.01389 12.0795 8.99592 11.9431C8.97795 11.8067 8.92566 11.6766 8.84353 11.5637C8.76141 11.4509 8.65189 11.3589 8.52438 11.2954C8.39687 11.232 8.25518 11.1991 8.11145 11.1996H1.89158Z" stroke="var(--stroke-0, #F6F8FF)" stroke-width="2" stroke-linecap="round" stroke-linejoin="round"/>
</svg>
